# xmcd CD database file
#
# Track frame offsets:
#	182
#	16417
#	31705
#	63937
#	82537
#	105867
#	135937
#	157462
#	172037
#	200335
#	222102
#	256682
#	280782
#	312380
#
# Disc length: 4499 seconds
#
# Revision: 0
# Processed by: cddbd v1.4PL0 Copyright (c) Steve Scherf et al.
# Submitted via: CDex 1.50beta10
#
DISCID=ab11910e
DTITLE=Various Artist - Harvest Jazz And Blues Festival (Fredericton, NB, Canada)
DYEAR=1900
DGENRE=Blues
TTITLE0=Double Life/Roger Howse and Ruff Ideas
TTITLE1=Messin' With The Kid/Downtown Blues Band
TTITLE2=Red House/Lloyd Hanson Blues Explosion
TTITLE3=All Your Love/Joe Murphy and The Water Street Blues Band
TTITLE4=Real Life/AKA
TTITLE5=Backwater Blues/Long John Baldry
TTITLE6=Hush Now And Don't Explain/Ranee Lee
TTITLE7=The Split/Mike Murley
TTITLE8=Three For Rose/Tony George
TTITLE9=After You've Gone/Lenny Solomon
TTITLE10=Windsprite/Cosmic Quartet
TTITLE11=Lady Bird/Hans Martini
TTITLE12=Walz For Bill Evans/Jazz Generation
TTITLE13=Train Go Home/Chad McQuarrie
EXTD=
EXTT0=
EXTT1=
EXTT2=
EXTT3=
EXTT4=
EXTT5=
EXTT6=
EXTT7=
EXTT8=
EXTT9=
EXTT10=
EXTT11=
EXTT12=
EXTT13=
PLAYORDER=
